<?xml version="1.0" encoding="UTF-8" standalone="no"?>
<!DOCTYPE svg PUBLIC "-//W3C//DTD SVG 1.1//EN" "http://www.w3.org/Graphics/SVG/1.1/DTD/svg11.dtd">
<svg version="1.1" xmlns="http://www.w3.org/2000/svg" xmlns:xlink="http://www.w3.org/1999/xlink" preserveAspectRatio="xMidYMid meet" viewBox="0 0 640 640" width="1000" height="1000"><defs><path d="M-3.85 320L643.85 320L643.85 653.47L-3.85 653.47L-3.85 320Z" id="a7D5WHgHU"></path><path d="M0 0L640 0L640 346.36L0 346.36L0 0Z" id="a4LtjFGyTd"></path><path d="M489.54 455.09C489.54 495.84 413.57 528.93 320 528.93C226.43 528.93 150.46 495.84 150.46 455.09C150.46 414.33 226.43 381.25 320 381.25C413.57 381.25 489.54 414.33 489.54 455.09Z" id="c1FVcYgYfZ"></path><path d="M489.54 461.75C489.54 502.51 413.57 535.59 320 535.59C226.43 535.59 150.46 502.51 150.46 461.75C150.46 421 226.43 387.91 320 387.91C413.57 387.91 489.54 421 489.54 461.75Z" id="bHc7mmcNR"></path><path d="M228.36 554.89C228.36 555.02 228.36 555.13 228.36 555.13C228.36 555.13 228.36 555.02 228.36 554.89C228.36 554.75 228.36 554.65 228.36 554.65C228.36 554.69 228.36 554.75 228.36 554.89Z" id="b4RNHhDo37"></path><path d="M276.74 587.79C276.74 587.92 276.63 588.03 276.5 588.03C276.37 588.03 276.26 587.92 276.26 587.79C276.26 587.66 276.37 587.55 276.5 587.55C276.63 587.55 276.74 587.66 276.74 587.79Z" id="a4Itz89yP7"></path><path d="M331.9 590.45C331.9 590.45 331.58 590.45 331.18 590.45C330.78 590.45 330.45 590.45 330.45 590.45C330.45 590.45 330.78 590.45 331.18 590.45C331.58 590.45 331.76 590.45 331.9 590.45Z" id="c1DXkNVkPZ"></path><path d="M340.9 598.01C340.9 598.22 340.9 598.39 340.9 598.39C340.9 598.39 340.9 598.22 340.9 598.01C340.9 597.79 340.9 597.62 340.9 597.62C340.9 597.7 340.9 597.79 340.9 598.01Z" id="c1MKsTgGch"></path><path d="M342.45 545.68C342.45 545.68 342.28 545.68 342.06 545.68C341.85 545.68 341.67 545.68 341.67 545.68C341.67 545.68 341.85 545.68 342.06 545.68C342.28 545.68 342.37 545.68 342.45 545.68Z" id="ccaNFbkF1"></path><path d="M316.64 105.58L316.64 432.62L319.95 435.93L471.76 346.19L319.95 94.31L316.64 105.58Z" id="gg3s0oXpy"></path><path d="M168.15 346.19L319.96 435.93L319.96 277.19L319.96 94.31L168.15 346.19Z" id="b7WGa1JI7"></path><path d="M318.09 466.95L318.09 583.45L319.95 588.91L471.85 374.98L319.95 464.67L318.09 466.95Z" id="d1iCUSMgYi"></path><path d="M319.96 464.67L168.15 374.98L319.96 588.9L319.96 464.67Z" id="atvRhOYAU"></path><path d="M471.76 346.2L319.95 277.19L319.95 435.93L471.76 346.2Z" id="a3CRUPcbfd"></path><path d="M319.95 435.93L319.95 277.19L168.15 346.2L319.95 435.93Z" id="a3k2WluBeD"></path><path d="M0 532.83L640 532.83L640 637.24L0 637.24L0 532.83Z" id="aByCoUKyo"></path></defs><g><g><g><use xlink:href="#a7D5WHgHU" opacity="1" fill="#6def31" fill-opacity="1"></use></g><g><use xlink:href="#a4LtjFGyTd" opacity="1" fill="#90d9f9" fill-opacity="1"></use></g><g><use xlink:href="#c1FVcYgYfZ" opacity="1" fill="#292002" fill-opacity="1"></use></g><g><use xlink:href="#bHc7mmcNR" opacity="1" fill="#564307" fill-opacity="1"></use></g><g><use xlink:href="#b4RNHhDo37" opacity="1" fill="#76d74d" fill-opacity="1"></use></g><g><use xlink:href="#a4Itz89yP7" opacity="1" fill="#432956" fill-opacity="1"></use></g><g><use xlink:href="#c1DXkNVkPZ" opacity="1" fill="#bc2455" fill-opacity="1"></use></g><g><use xlink:href="#c1MKsTgGch" opacity="1" fill="#e8aaf0" fill-opacity="1"></use></g><g><use xlink:href="#ccaNFbkF1" opacity="1" fill="#639271" fill-opacity="1"></use></g><g><g><use xlink:href="#gg3s0oXpy" opacity="1" fill="#343434" fill-opacity="1"></use><g><use xlink:href="#gg3s0oXpy" opacity="1" fill-opacity="0" stroke="#000000" stroke-width="1" stroke-opacity="0"></use></g></g><g><use xlink:href="#b7WGa1JI7" opacity="1" fill="#8c8c8c" fill-opacity="1"></use><g><use xlink:href="#b7WGa1JI7" opacity="1" fill-opacity="0" stroke="#000000" stroke-width="1" stroke-opacity="0"></use></g></g><g><use xlink:href="#d1iCUSMgYi" opacity="1" fill="#3c3c3b" fill-opacity="1"></use><g><use xlink:href="#d1iCUSMgYi" opacity="1" fill-opacity="0" stroke="#000000" stroke-width="1" stroke-opacity="0"></use></g></g><g><use xlink:href="#atvRhOYAU" opacity="1" fill="#8c8c8c" fill-opacity="1"></use><g><use xlink:href="#atvRhOYAU" opacity="1" fill-opacity="0" stroke="#000000" stroke-width="1" stroke-opacity="0"></use></g></g><g><use xlink:href="#a3CRUPcbfd" opacity="1" fill="#141414" fill-opacity="1"></use><g><use xlink:href="#a3CRUPcbfd" opacity="1" fill-opacity="0" stroke="#000000" stroke-width="1" stroke-opacity="0"></use></g></g><g><use xlink:href="#a3k2WluBeD" opacity="1" fill="#393939" fill-opacity="1"></use><g><use xlink:href="#a3k2WluBeD" opacity="1" fill-opacity="0" stroke="#000000" stroke-width="1" stroke-opacity="0"></use></g></g></g><g><use xlink:href="#aByCoUKyo" opacity="1" fill="#6def31" fill-opacity="1"></use></g></g></g></svg>